solid OpenSCAD_Model
  facet normal -1 0 0
    outer loop
      vertex -25 21 0
      vertex -25 -21 4
      vertex -25 21 4
    endloop
  endfacet
  facet normal -1 0 0
    outer loop
      vertex -25 -25 0
      vertex -25 -21 4
      vertex -25 21 0
    endloop
  endfacet
  facet normal -1 0 0
    outer loop
      vertex -25 -25 50
      vertex -25 -21 4
      vertex -25 -25 0
    endloop
  endfacet
  facet normal -1 0 0
    outer loop
      vertex -25 -21 4
      vertex -25 -25 50
      vertex -25 -21 50
    endloop
  endfacet
  facet normal 1 0 0
    outer loop
      vertex 25 -21 50
      vertex 25 -25 50
      vertex 25 -21 4
    endloop
  endfacet
  facet normal 1 -0 0
    outer loop
      vertex 25 -21 4
      vertex 25 25 0
      vertex 25 25 4
    endloop
  endfacet
  facet normal 1 0 0
    outer loop
      vertex 25 -21 4
      vertex 25 -25 0
      vertex 25 25 0
    endloop
  endfacet
  facet normal 1 0 0
    outer loop
      vertex 25 -25 0
      vertex 25 -21 4
      vertex 25 -25 50
    endloop
  endfacet
  facet normal 0 1 0
    outer loop
      vertex 25 -21 50
      vertex 21 -21 43.2893
      vertex 21 -21 50
    endloop
  endfacet
  facet normal 0 1 0
    outer loop
      vertex 21 -21 43.2893
      vertex 25 -21 4
      vertex -21 -21 43.2893
    endloop
  endfacet
  facet normal 0 1 -0
    outer loop
      vertex 25 -21 4
      vertex 21 -21 43.2893
      vertex 25 -21 50
    endloop
  endfacet
  facet normal 0 1 -0
    outer loop
      vertex -21 -21 43.2893
      vertex -25 -21 50
      vertex -21 -21 50
    endloop
  endfacet
  facet normal 0 1 0
    outer loop
      vertex -21 -21 43.2893
      vertex -25 -21 4
      vertex -25 -21 50
    endloop
  endfacet
  facet normal 0 1 0
    outer loop
      vertex -25 -21 4
      vertex -21 -21 43.2893
      vertex 25 -21 4
    endloop
  endfacet
  facet normal 0 0 -1
    outer loop
      vertex 25 -25 0
      vertex 0 25 0
      vertex 25 25 0
    endloop
  endfacet
  facet normal 0 0 -1
    outer loop
      vertex -25 -25 0
      vertex 0 25 0
      vertex 25 -25 0
    endloop
  endfacet
  facet normal 0 0 -1
    outer loop
      vertex -25 21 0
      vertex 0 25 0
      vertex -25 -25 0
    endloop
  endfacet
  facet normal -0 0 -1
    outer loop
      vertex 0 25 0
      vertex -25 21 0
      vertex -25 25 0
    endloop
  endfacet
  facet normal 0 -1 0
    outer loop
      vertex -25 -25 50
      vertex -21 -25 39.2893
      vertex -21 -25 50
    endloop
  endfacet
  facet normal 0 -1 -0
    outer loop
      vertex -21 -25 39.2893
      vertex -25 -25 0
      vertex 21 -25 39.2893
    endloop
  endfacet
  facet normal 0 -1 0
    outer loop
      vertex -25 -25 0
      vertex -21 -25 39.2893
      vertex -25 -25 50
    endloop
  endfacet
  facet normal 0 -1 0
    outer loop
      vertex 21 -25 39.2893
      vertex 25 -25 50
      vertex 21 -25 50
    endloop
  endfacet
  facet normal 0 -1 0
    outer loop
      vertex 21 -25 39.2893
      vertex 25 -25 0
      vertex 25 -25 50
    endloop
  endfacet
  facet normal 0 -1 0
    outer loop
      vertex 25 -25 0
      vertex 21 -25 39.2893
      vertex -25 -25 0
    endloop
  endfacet
  facet normal 0 -0.707107 0.707107
    outer loop
      vertex -21 -25 39.2893
      vertex 21 -21 43.2893
      vertex -21 -21 43.2893
    endloop
  endfacet
  facet normal 0 -0.707107 0.707107
    outer loop
      vertex 21 -21 43.2893
      vertex -21 -25 39.2893
      vertex 21 -25 39.2893
    endloop
  endfacet
  facet normal -0 0 1
    outer loop
      vertex -25 -21 50
      vertex -21 -25 50
      vertex -21 -21 50
    endloop
  endfacet
  facet normal 0 0 1
    outer loop
      vertex -21 -25 50
      vertex -25 -21 50
      vertex -25 -25 50
    endloop
  endfacet
  facet normal 1 -0 0
    outer loop
      vertex -21 -25 50
      vertex -21 -21 43.2893
      vertex -21 -21 50
    endloop
  endfacet
  facet normal 1 0 0
    outer loop
      vertex -21 -21 43.2893
      vertex -21 -25 50
      vertex -21 -25 39.2893
    endloop
  endfacet
  facet normal -1 0 0
    outer loop
      vertex 21 -25 50
      vertex 21 -21 43.2893
      vertex 21 -25 39.2893
    endloop
  endfacet
  facet normal -1 0 0
    outer loop
      vertex 21 -21 43.2893
      vertex 21 -25 50
      vertex 21 -21 50
    endloop
  endfacet
  facet normal -0 0 1
    outer loop
      vertex 21 -21 50
      vertex 25 -25 50
      vertex 25 -21 50
    endloop
  endfacet
  facet normal 0 0 1
    outer loop
      vertex 25 -25 50
      vertex 21 -21 50
      vertex 21 -25 50
    endloop
  endfacet
  facet normal 1 -0 0
    outer loop
      vertex 25 21 50
      vertex 25 25 4
      vertex 25 25 50
    endloop
  endfacet
  facet normal 1 0 0
    outer loop
      vertex 25 25 4
      vertex 25 21 50
      vertex 25 21 4
    endloop
  endfacet
  facet normal -1 0 0
    outer loop
      vertex -25 21 0
      vertex -25 25 50
      vertex -25 25 0
    endloop
  endfacet
  facet normal -1 -0 0
    outer loop
      vertex -25 25 50
      vertex -25 21 0
      vertex -25 21 50
    endloop
  endfacet
  facet normal 0 -1 0
    outer loop
      vertex -25 21 50
      vertex -21 21 43.2893
      vertex -21 21 50
    endloop
  endfacet
  facet normal 0 -1 -0
    outer loop
      vertex -21 21 43.2893
      vertex -25 21 4
      vertex 21 21 43.2893
    endloop
  endfacet
  facet normal 0 -1 0
    outer loop
      vertex -25 21 4
      vertex -21 21 43.2893
      vertex -25 21 50
    endloop
  endfacet
  facet normal 0 -1 0
    outer loop
      vertex 21 21 43.2893
      vertex 25 21 50
      vertex 21 21 50
    endloop
  endfacet
  facet normal 0 -1 0
    outer loop
      vertex 21 21 43.2893
      vertex 25 21 4
      vertex 25 21 50
    endloop
  endfacet
  facet normal 0 -1 0
    outer loop
      vertex 25 21 4
      vertex 21 21 43.2893
      vertex -25 21 4
    endloop
  endfacet
  facet normal -0 0 0
    outer loop
      vertex -25 21 4
      vertex -25 21 50
      vertex -25 21 0
    endloop
  endfacet
  facet normal 0 1 0
    outer loop
      vertex 25 25 50
      vertex 21 25 39.2893
      vertex 21 25 50
    endloop
  endfacet
  facet normal 0 1 0
    outer loop
      vertex 0 25 4
      vertex 21 25 39.2893
      vertex 25 25 4
    endloop
  endfacet
  facet normal 0 1 -0
    outer loop
      vertex 25 25 4
      vertex 21 25 39.2893
      vertex 25 25 50
    endloop
  endfacet
  facet normal 0 1 -0
    outer loop
      vertex -21 25 39.2893
      vertex -25 25 50
      vertex -21 25 50
    endloop
  endfacet
  facet normal 0 1 0
    outer loop
      vertex 21 25 39.2893
      vertex 0 25 4
      vertex -21 25 39.2893
    endloop
  endfacet
  facet normal 0 1 0
    outer loop
      vertex -25 25 0
      vertex 0 25 4
      vertex 0 25 0
    endloop
  endfacet
  facet normal 0 1 0
    outer loop
      vertex -21 25 39.2893
      vertex -25 25 0
      vertex -25 25 50
    endloop
  endfacet
  facet normal 0 1 0
    outer loop
      vertex 0 25 4
      vertex -25 25 0
      vertex -21 25 39.2893
    endloop
  endfacet
  facet normal 0 0.707107 0.707107
    outer loop
      vertex 21 25 39.2893
      vertex -21 21 43.2893
      vertex 21 21 43.2893
    endloop
  endfacet
  facet normal 0 0.707107 0.707107
    outer loop
      vertex -21 21 43.2893
      vertex 21 25 39.2893
      vertex -21 25 39.2893
    endloop
  endfacet
  facet normal -0 0 1
    outer loop
      vertex 21 25 50
      vertex 25 21 50
      vertex 25 25 50
    endloop
  endfacet
  facet normal 0 0 1
    outer loop
      vertex 25 21 50
      vertex 21 25 50
      vertex 21 21 50
    endloop
  endfacet
  facet normal -1 0 0
    outer loop
      vertex 21 21 43.2893
      vertex 21 25 50
      vertex 21 25 39.2893
    endloop
  endfacet
  facet normal -1 -0 0
    outer loop
      vertex 21 25 50
      vertex 21 21 43.2893
      vertex 21 21 50
    endloop
  endfacet
  facet normal 1 0 0
    outer loop
      vertex -21 21 43.2893
      vertex -21 25 50
      vertex -21 21 50
    endloop
  endfacet
  facet normal 1 0 0
    outer loop
      vertex -21 25 50
      vertex -21 21 43.2893
      vertex -21 25 39.2893
    endloop
  endfacet
  facet normal -0 0 1
    outer loop
      vertex -25 25 50
      vertex -21 21 50
      vertex -21 25 50
    endloop
  endfacet
  facet normal 0 0 1
    outer loop
      vertex -21 21 50
      vertex -25 25 50
      vertex -25 21 50
    endloop
  endfacet
  facet normal -0 0 1
    outer loop
      vertex -25 21 4
      vertex 25 -21 4
      vertex 25 21 4
    endloop
  endfacet
  facet normal 0 0 1
    outer loop
      vertex 25 -21 4
      vertex -25 21 4
      vertex -25 -21 4
    endloop
  endfacet
  facet normal -0 0 0
    outer loop
      vertex 25 21 4
      vertex 25 -21 4
      vertex 25 25 4
    endloop
  endfacet
  facet normal 0 1 -0
    outer loop
      vertex 25 25 0
      vertex 0 25 4
      vertex 25 25 4
    endloop
  endfacet
  facet normal 0 1 0
    outer loop
      vertex 0 25 4
      vertex 25 25 0
      vertex 0 25 0
    endloop
  endfacet
endsolid OpenSCAD_Model
